<svg xmlns="http://www.w3.org/2000/svg" xmlns:xlink="http://www.w3.org/1999/xlink" width="512" zoomAndPan="magnify" viewBox="0 0 384 383.999986" height="512" preserveAspectRatio="xMidYMid meet" version="1.0"><defs><clipPath id="d5af85a32b"><path d="M 0 28.773438 L 384 28.773438 L 384 355 L 0 355 Z M 0 28.773438 " clip-rule="nonzero"/></clipPath></defs><g clip-path="url(#d5af85a32b)"><path fill="#ffffff" d="M 0.339844 266.765625 L 37.519531 163.261719 C 37.53125 163.238281 37.542969 163.21875 37.550781 163.199219 C 37.570312 163.140625 37.597656 163.089844 37.625 163.035156 C 37.664062 162.945312 37.710938 162.855469 37.765625 162.773438 C 37.796875 162.722656 37.828125 162.671875 37.859375 162.625 C 37.925781 162.53125 38 162.441406 38.078125 162.359375 C 38.109375 162.328125 38.132812 162.292969 38.164062 162.265625 C 38.273438 162.152344 38.398438 162.054688 38.535156 161.960938 C 38.542969 161.957031 38.550781 161.949219 38.558594 161.941406 C 38.570312 161.933594 38.585938 161.929688 38.601562 161.921875 C 38.703125 161.859375 38.808594 161.800781 38.917969 161.75 C 39.023438 161.699219 39.136719 161.65625 39.25 161.621094 C 39.269531 161.613281 39.292969 161.613281 39.316406 161.605469 C 39.429688 161.574219 39.546875 161.550781 39.664062 161.53125 C 39.78125 161.515625 39.898438 161.503906 40.015625 161.503906 C 40.070312 161.503906 40.128906 161.507812 40.183594 161.511719 L 84.914062 164.296875 L 72.5 119.3125 C 72.277344 118.507812 72.445312 117.644531 72.957031 116.984375 L 140.214844 29.964844 C 140.226562 29.949219 140.242188 29.9375 140.253906 29.921875 C 140.359375 29.792969 140.472656 29.675781 140.601562 29.566406 C 140.621094 29.550781 140.636719 29.53125 140.65625 29.515625 C 140.804688 29.398438 140.964844 29.296875 141.136719 29.210938 C 141.183594 29.1875 141.238281 29.171875 141.285156 29.152344 C 141.390625 29.109375 141.496094 29.058594 141.609375 29.027344 C 141.625 29.023438 141.644531 29.023438 141.664062 29.019531 C 141.867188 28.96875 142.070312 28.941406 142.269531 28.9375 C 142.285156 28.9375 142.300781 28.929688 142.316406 28.929688 C 142.472656 28.929688 142.628906 28.945312 142.78125 28.976562 C 142.820312 28.980469 142.859375 28.996094 142.894531 29.003906 C 143.011719 29.027344 143.121094 29.058594 143.230469 29.101562 C 143.25 29.109375 143.269531 29.109375 143.285156 29.117188 L 246.464844 69.769531 C 247.238281 70.078125 247.828125 70.730469 248.046875 71.535156 L 268.347656 145.074219 L 351.007812 145.695312 C 351.050781 145.695312 351.097656 145.707031 351.140625 145.707031 C 351.238281 145.714844 351.332031 145.71875 351.425781 145.734375 C 351.484375 145.746094 351.542969 145.761719 351.601562 145.777344 C 351.679688 145.796875 351.761719 145.8125 351.839844 145.839844 C 351.910156 145.863281 351.972656 145.894531 352.035156 145.921875 C 352.101562 145.949219 352.167969 145.972656 352.234375 146.007812 C 352.34375 146.066406 352.453125 146.136719 352.558594 146.214844 C 352.570312 146.222656 352.582031 146.230469 352.59375 146.238281 C 352.59375 146.238281 352.597656 146.242188 352.597656 146.242188 C 352.726562 146.339844 352.839844 146.453125 352.949219 146.570312 C 352.988281 146.613281 353.019531 146.65625 353.058594 146.703125 C 353.121094 146.78125 353.179688 146.867188 353.234375 146.953125 C 353.269531 147.007812 353.300781 147.0625 353.328125 147.121094 C 353.375 147.207031 353.414062 147.292969 353.449219 147.382812 C 353.472656 147.441406 353.496094 147.5 353.515625 147.5625 C 353.523438 147.585938 353.535156 147.605469 353.539062 147.628906 L 383.667969 254.351562 C 383.894531 255.15625 383.730469 256.019531 383.226562 256.683594 L 326.820312 330.726562 C 326.816406 330.726562 326.816406 330.726562 326.816406 330.726562 C 326.816406 330.730469 326.808594 330.734375 326.804688 330.742188 C 326.691406 330.886719 326.5625 331.019531 326.421875 331.136719 C 326.371094 331.179688 326.320312 331.210938 326.265625 331.25 C 326.164062 331.324219 326.0625 331.394531 325.953125 331.453125 C 325.886719 331.484375 325.820312 331.511719 325.753906 331.542969 C 325.644531 331.589844 325.535156 331.628906 325.421875 331.660156 C 325.351562 331.683594 325.277344 331.699219 325.203125 331.710938 C 325.152344 331.722656 325.109375 331.738281 325.058594 331.746094 C 324.988281 331.757812 324.917969 331.75 324.847656 331.753906 C 324.800781 331.757812 324.753906 331.769531 324.707031 331.769531 C 324.699219 331.769531 324.695312 331.769531 324.6875 331.769531 L 214.707031 330.945312 C 213.527344 330.933594 212.496094 330.148438 212.175781 329.011719 L 196.214844 272.464844 L 167.214844 353.191406 C 166.816406 354.304688 165.710938 355.015625 164.550781 354.945312 L 53.871094 348.046875 C 53.828125 348.042969 53.789062 348.027344 53.746094 348.023438 C 53.613281 348.007812 53.484375 347.988281 53.359375 347.953125 C 53.292969 347.933594 53.230469 347.914062 53.167969 347.894531 C 53.046875 347.851562 52.929688 347.800781 52.820312 347.742188 C 52.761719 347.710938 52.703125 347.683594 52.648438 347.652344 C 52.53125 347.578125 52.421875 347.492188 52.316406 347.402344 C 52.277344 347.367188 52.234375 347.339844 52.195312 347.304688 C 52.058594 347.171875 51.929688 347.023438 51.820312 346.855469 L 0.621094 269.121094 C 0.160156 268.425781 0.0546875 267.554688 0.339844 266.765625 Z M 0.339844 266.765625 " fill-opacity="1" fill-rule="nonzero"/></g><path fill="#3ab0ff" d="M 272.816406 161.257812 C 272.816406 161.257812 272.8125 161.257812 272.8125 161.257812 L 269.816406 150.394531 L 345.660156 150.960938 L 293.273438 219.730469 L 229.335938 219.25 L 272.355469 163.585938 C 272.382812 163.550781 272.402344 163.507812 272.425781 163.46875 C 272.472656 163.40625 272.523438 163.347656 272.5625 163.277344 C 272.585938 163.234375 272.597656 163.191406 272.621094 163.148438 C 272.652344 163.082031 272.683594 163.015625 272.710938 162.945312 C 272.753906 162.835938 272.789062 162.722656 272.820312 162.605469 C 272.835938 162.535156 272.855469 162.464844 272.867188 162.394531 C 272.886719 162.269531 272.894531 162.140625 272.894531 162.011719 C 272.898438 161.953125 272.90625 161.890625 272.902344 161.828125 C 272.890625 161.644531 272.863281 161.460938 272.816406 161.277344 C 272.816406 161.269531 272.816406 161.265625 272.816406 161.257812 Z M 378.199219 254.519531 L 349.878906 154.183594 L 297.496094 222.949219 L 325.816406 323.28125 Z M 205.101562 250.609375 C 204.746094 251.066406 204.261719 251.378906 203.734375 251.53125 L 199.300781 263.871094 L 216.742188 325.652344 L 321.195312 326.4375 L 292.570312 225.03125 L 225.257812 224.523438 Z M 40.722656 170.050781 L 5.78125 267.3125 L 53.332031 339.507812 L 88.273438 242.242188 Z M 98.851562 210.800781 C 98.8125 210.785156 98.78125 210.757812 98.742188 210.742188 C 98.621094 210.6875 98.503906 210.625 98.394531 210.554688 C 98.335938 210.519531 98.28125 210.480469 98.226562 210.4375 C 98.125 210.363281 98.035156 210.277344 97.945312 210.1875 C 97.898438 210.140625 97.851562 210.097656 97.8125 210.050781 C 97.71875 209.945312 97.640625 209.828125 97.566406 209.707031 C 97.542969 209.664062 97.511719 209.625 97.484375 209.578125 C 97.394531 209.410156 97.316406 209.230469 97.265625 209.035156 L 86.410156 169.707031 L 45.160156 167.136719 L 92.707031 239.324219 L 186.003906 245.140625 Z M 57.726562 342.96875 L 162.894531 349.523438 L 198.207031 251.21875 L 93.042969 244.664062 Z M 266.285156 157.546875 L 243.285156 74.222656 L 146.289062 36.003906 L 169.289062 119.328125 Z M 164.171875 120.738281 L 141.167969 37.40625 L 77.96875 119.179688 L 100.96875 202.507812 Z M 104.085938 207.15625 L 202.117188 245.785156 L 265.996094 163.136719 L 167.960938 124.507812 Z M 104.085938 207.15625 " fill-opacity="1" fill-rule="nonzero"/></svg>